<svg width="24" height="24" viewBox="0 0 24 24" fill="none" xmlns="http://www.w3.org/2000/svg">
<g clip-path="url(#clip0_84_22962)">
<path d="M11.0005 15H13.0005V17H11.0005V15ZM11.0005 7H13.0005V13H11.0005V7ZM11.9905 2C6.47049 2 2.00049 6.48 2.00049 12C2.00049 17.52 6.47049 22 11.9905 22C17.5205 22 22.0005 17.52 22.0005 12C22.0005 6.48 17.5205 2 11.9905 2ZM12.0005 20C7.58049 20 4.00049 16.42 4.00049 12C4.00049 7.58 7.58049 4 12.0005 4C16.4205 4 20.0005 7.58 20.0005 12C20.0005 16.42 16.4205 20 12.0005 20Z" fill="#666666"/>
</g>
<defs>
<clipPath id="clip0_84_22962">
<rect width="24" height="24" fill="white" transform="translate(0.000488281)"/>
</clipPath>
</defs>
</svg>
